<svg id="Capa_1" enable-background="new 0 0 512.024 512.024" height="512" viewBox="0 0 512.024 512.024" width="512" xmlns="http://www.w3.org/2000/svg"><path d="m371.768 398.058c-21.605-36.24-59.05-60.44-100.756-65.169v-44.488c.752-45.046 10.249-83.675 28.238-114.979 78.49-.144 129.945-23.096 181.427-80.256 18.027-19.778 25.463-33.858 31.342-44.766-2.214-3.092-13.122-23.933-47.341-38.253-24.048-9.93-73.9-21.362-137.574 13.648l-.32.181c-37.438 21.797-61.787 51.523-66.806 81.557-3.116 18.643 1.287 37.075 12.751 53.862-6.584 11.589-12.17 23.971-16.716 37.139-4.547-13.17-10.132-25.55-16.716-37.139 11.464-16.787 15.866-35.219 12.751-53.862-5.019-30.033-29.369-59.76-66.807-81.557l-.32-.181c-64.046-35.214-114.313-23.666-138.575-13.647-3.913 2.823-26.705 7.97-46.341 38.249 6.582 13.26 13.38 26.16 30.282 44.704 26.594 29.527 52.512 49.163 81.567 61.794 28.79 12.517 61.047 18.455 100.92 18.527 17.989 31.305 27.486 69.933 28.238 114.979v44.488c-41.706 4.729-79.151 28.928-100.756 65.169-67.073-24.052-140.244 26.295-140.244 98.966v15h512v-15c0-72.637-73.132-123.03-140.244-98.966zm-82.201-287.579c3.485-20.854 22.979-43.455 52.153-60.483 49.936-27.397 88.151-21.743 111.441-12.146 10.38 4.414 17.697 9.542 22.396 13.536-3.813 5.613-9.528 13.318-17.112 21.639-40.683 45.17-79.846 65.606-137.194 69.635 20.506-23.084 47.853-42.113 79.315-54.867l-11.27-27.803c-39.504 16.013-73.467 40.945-97.719 71.372-2.546-6.811-3.204-13.734-2.01-20.883zm-237.047-37.521c-7.605-8.344-13.153-16.065-16.756-21.614 4.456-3.921 11.583-9.023 22.101-13.495 19.303-7.952 59.506-16.895 112.439 12.147 29.176 17.028 48.668 39.63 52.154 60.483 1.195 7.149.536 14.072-2.01 20.882-24.251-30.428-58.215-55.358-97.72-71.372l-11.271 27.803c31.474 12.758 58.829 31.797 79.338 54.892-58.017-3.973-97.465-24.414-138.275-69.726zm-20.981 409.066c9.623-46.585 62.298-75.275 108.624-51.342l13.987 7.225 6.542-14.319c17.085-37.398 54.5-61.564 95.321-61.564s78.236 24.165 95.32 61.563l6.541 14.32 13.987-7.225c46.065-23.798 98.949 4.495 108.624 51.342z"/></svg>