<svg height="512pt" viewBox="-47 0 512 512" width="512pt" xmlns="http://www.w3.org/2000/svg"><path d="m401.050781 307.632812c-17.03125-36.941406-44.882812-66.324218-78.429687-82.738281-19.65625-9.621093-39.925782-14.167969-59.574219-13.609375-3.757813-7.039062-13.714844-26.773437-21.757813-52.199218l-5.195312-31.507813c14.074219 15.597656 33.128906 30.78125 56.914062 36.582031 7.4375 1.816406 14.878907 2.605469 22.203126 2.605469 46.910156-.007813 88.789062-32.320313 90.8125-33.90625l9.339843-7.3125-4.941406-10.800781c-1.238281-2.707032-30.957031-66.433594-86.03125-79.871094-36.855469-8.992188-73.949219 7.25-95.15625 19.527344v-54.402344h-29.125v102.449219h-.007813c-3.621093 16.558593-15.917968 66.488281-40.511718 109.074219-21.117188-1.496094-43.082032 2.972656-64.328125 13.371093-33.542969 16.414063-61.394531 45.796875-78.425781 82.738281-17.035157 36.941407-21.3125 77.25-12.054688 113.5 9.542969 37.375 32.230469 66.035157 63.878906 80.703126 14.636719 6.785156 30.304688 10.164062 46.339844 10.164062 18.636719 0 37.769531-4.566406 56.355469-13.660156 13.574219-6.644532 26.210937-15.417969 37.582031-25.949219 11.371094 10.535156 24.015625 19.304687 37.589844 25.949219 18.589844 9.097656 37.71875 13.660156 56.355468 13.660156 16.035157 0 31.710938-3.378906 46.34375-10.164062 31.648438-14.667969 54.332032-43.328126 63.875-80.703126 9.261719-36.25 4.980469-76.558593-12.050781-113.5zm-83.753906-243.542968c29.152344 7.113281 50.109375 35.972656 59.816406 52.121094-16.03125 9.878906-47.871093 25.84375-77.015625 18.738281-29.152344-7.113281-50.109375-35.976563-59.8125-52.125 16.03125-9.875 47.867188-25.839844 77.011719-18.734375zm-104.835937 103.515625c6.53125 20.84375 14.234374 38.117187 19.589843 49.023437-4.109375 1.339844-8.15625 2.929688-12.128906 4.769532-3.796875 1.757812-7.460937 3.726562-10.988281 5.878906-3.527344-2.152344-7.183594-4.121094-10.972656-5.878906-2.546876-1.183594-5.132813-2.25-7.738282-3.222657 9.105469-17 16.441406-34.488281 22.238282-50.570312zm-131.21875 306.9375c-49.214844-22.808594-65.898438-92.027344-37.1875-154.292969 14.144531-30.679688 37.003906-54.945312 64.363281-68.335938 14.375-7.035156 29.050781-10.566406 43.207031-10.566406 11.265625 0 22.207031 2.246094 32.402344 6.738282-13.011719 14.59375-22.589844 32.914062-27.980469 54.015624-9.257813 36.25-4.976563 76.558594 12.054687 113.5 5.730469 12.425782 12.6875 23.992188 20.671876 34.503907-31.601563 29.429687-73.042969 40.425781-107.53125 24.4375zm255.402343 0c-10.753906 4.984375-22.175781 7.347656-33.773437 7.347656-41.480469-.003906-85.113282-30.246094-107.550782-78.90625-14.144531-30.675781-17.773437-63.855469-10.222656-93.425781 7.265625-28.453125 24.105469-50.066406 47.410156-60.871094 10.578126-4.902344 21.984376-7.34375 33.753907-7.34375 14.15625 0 28.832031 3.535156 43.207031 10.570312 27.359375 13.386719 50.21875 37.65625 64.363281 68.332032 28.710938 62.269531 12.027344 131.488281-37.1875 154.296875zm0 0"/><path d="m333.132812 388.414062h29.492188v29.566407h-29.492188zm0 0"/><path d="m315.390625 341.609375h29.488281v29.566406h-29.488281zm0 0"/></svg>