<?xml version="1.0" encoding="iso-8859-1"?>
<!-- Generator: Adobe Illustrator 19.0.0, SVG Export Plug-In . SVG Version: 6.00 Build 0)  -->
<svg version="1.1" id="Capa_1" xmlns="http://www.w3.org/2000/svg" xmlns:xlink="http://www.w3.org/1999/xlink" x="0px" y="0px"
	 viewBox="0 0 511.999 511.999" style="enable-background:new 0 0 511.999 511.999;" xml:space="preserve">
<g>
	<g>
		<circle cx="181.72" cy="356.809" r="7.112"/>
	</g>
</g>
<g>
	<g>
		<circle cx="72.72" cy="379.739" r="7.112"/>
	</g>
</g>
<g>
	<g>
		<circle cx="101.83" cy="314.959" r="7.112"/>
	</g>
</g>
<g>
	<g>
		<circle cx="144.75" cy="398.089" r="7.112"/>
	</g>
</g>
<g>
	<g>
		<path d="M188.258,193.063c-2.93-2.928-7.676-2.929-10.606,0.001l-6.41,6.41c-2.929,2.929-2.928,7.677,0.001,10.605
			c1.464,1.465,3.383,2.197,5.302,2.197c1.919,0,3.839-0.732,5.303-2.197l6.41-6.41C191.187,200.74,191.186,195.992,188.258,193.063
			z"/>
	</g>
</g>
<g>
	<g>
		<circle cx="169.47" cy="275.749" r="7.112"/>
	</g>
</g>
<g>
	<g>
		<path d="M159.461,156.721c-1.206-3.964-5.395-6.197-9.358-4.99l-9.386,2.857c-3.962,1.206-6.196,5.396-4.99,9.357
			c0.985,3.234,3.958,5.317,7.172,5.317c0.723,0,1.458-0.105,2.186-0.327l9.386-2.857
			C158.433,164.872,160.667,160.682,159.461,156.721z"/>
	</g>
</g>
<g>
	<g>
		<path d="M293.719,272.245l-12.527-33.623c-1.446-3.884-5.768-5.856-9.646-4.41c-3.882,1.446-5.855,5.765-4.41,9.645l12.528,33.624
			c1.125,3.02,3.986,4.883,7.028,4.883c0.87,0,1.755-0.152,2.617-0.474C293.191,280.444,295.164,276.125,293.719,272.245z"/>
	</g>
</g>
<g>
	<g>
		<path d="M454.592,262.585l-33.624-12.528c-3.878-1.447-8.198,0.528-9.645,4.41c-1.445,3.879,0.53,8.197,4.41,9.644l33.624,12.528
			c0.862,0.321,1.747,0.474,2.617,0.474c3.042,0,5.903-1.865,7.028-4.883C460.448,268.349,458.474,264.031,454.592,262.585z"/>
	</g>
</g>
<g>
	<g>
		<path d="M379.874,337.305l-33.624-12.53c-3.883-1.444-8.199,0.528-9.647,4.409c-1.446,3.882,0.528,8.2,4.409,9.647l33.625,12.529
			c0.863,0.321,1.748,0.474,2.618,0.474c3.042,0,5.903-1.865,7.028-4.883C385.729,343.069,383.755,338.751,379.874,337.305z"/>
	</g>
</g>
<g>
	<g>
		<path d="M368.439,197.526l-12.528-33.624c-1.446-3.883-5.769-5.855-9.646-4.41c-3.882,1.446-5.855,5.765-4.41,9.645l12.528,33.624
			c1.125,3.02,3.986,4.884,7.029,4.884c0.87,0,1.755-0.152,2.617-0.474C367.911,205.725,369.884,201.406,368.439,197.526z"/>
	</g>
</g>
<g>
	<g>
		<path d="M150.543,189.38c-2.243-3.481-6.885-4.485-10.365-2.244l-5.237,3.374c-3.482,2.243-4.487,6.884-2.244,10.366
			c1.433,2.225,3.847,3.439,6.311,3.439c1.391,0,2.798-0.387,4.054-1.195l5.237-3.374
			C151.781,197.503,152.786,192.862,150.543,189.38z"/>
	</g>
</g>
<g>
	<g>
		<path d="M503.518,222.891c15.187-33.283,9.666-70.122-14.063-93.852c-23.73-23.728-60.567-29.25-93.852-14.064
			c-1.214,0.553-2.62,0.599-3.862,0.122c-33.585-12.86-71.709-4.747-97.129,20.669c-8.063,8.064-14.463,17.425-19.018,27.822
			c-0.866,1.977-2.666,3.377-4.815,3.745c-13.766,2.36-26.473,7.701-37.558,15.665L104.339,54.118
			c-5.165-5.164-12.311-7.884-19.607-7.478c-7.277,0.412-14.052,3.915-18.585,9.61c-52.459,65.902-53.008,159.704-2.334,226.188
			c-5.75,3.575-11.738,6.659-18.185,9.003c-26.404,9.602-46.848,42.337-45.571,72.971c0.851,20.444,11.891,57.353,76.26,74.858
			c36.476,9.92,73.031,14.935,108.797,14.934c1.63,0,3.255-0.033,4.881-0.054c3.8,3.76,8.596,6.455,13.892,7.687l11.993,2.792
			c2.23,0.52,4.462,0.769,6.662,0.769c11.108,0,21.373-6.377,26.245-16.584c18.957-3.238,33.893-7.268,44.004-9.998l1.866-0.504
			c13.021-3.505,26.085-10.225,38.026-19.513c29.851,9.854,63.796,3.89,88.682-17.956c0.838-0.735,1.659-1.482,2.463-2.24
			c3.016-2.84,3.157-7.586,0.316-10.601c-2.84-3.016-7.586-3.154-10.601-0.316c-0.679,0.639-1.371,1.269-2.076,1.888
			c-21.526,18.897-51.176,23.567-76.735,14.059c-0.444-0.229-0.908-0.409-1.382-0.544c-8.093-3.193-15.754-7.806-22.578-13.876
			c-4.6-4.091-8.687-8.704-12.151-13.715c-2.675-3.87-6.894-6.214-11.577-6.432c-4.65-0.213-9.023,1.706-12.012,5.271
			c-18.599,22.177-31.041,43.325-39.156,66.553c-2.393,6.852-9.532,10.774-16.596,9.132l-11.993-2.792
			c-3.94-0.917-7.192-3.371-9.158-6.907c-1.985-3.572-2.35-7.677-1.03-11.56c10.255-30.158,26.46-57.308,51-85.44
			c2.81-3.222,4.08-7.498,3.483-11.736c-0.602-4.283-3.038-8.091-6.68-10.447c-6.139-3.971-11.69-8.822-16.498-14.424
			c-18.053-21.027-22.682-49.746-13.998-74.725c0.017-0.048,0.034-0.096,0.05-0.144c3.148-8.996,8.009-17.509,14.616-24.993
			c2.541-2.877,5.261-5.519,8.128-7.944c0.137-0.107,0.27-0.221,0.401-0.339c10.225-8.534,22.377-14.17,35.71-16.454
			c7.137-1.223,13.128-5.899,16.021-12.511c3.804-8.679,9.148-16.496,15.886-23.234c21.24-21.238,53.097-28.015,81.16-17.269
			c4.972,1.905,10.604,1.729,15.45-0.483c27.53-12.561,57.765-8.232,77.02,11.025c19.259,19.258,23.586,49.49,11.024,77.02
			c-2.212,4.848-2.388,10.479-0.482,15.451c10.748,28.063,3.97,59.92-17.27,81.157c-6.74,6.741-14.558,12.086-23.234,15.887
			c-6.61,2.896-11.287,8.884-12.51,16.016c-0.949,5.541-2.513,10.978-4.647,16.155c-1.579,3.83,0.246,8.213,4.075,9.791
			c3.831,1.58,8.213-0.246,9.791-4.075c2.557-6.2,4.429-12.708,5.564-19.339c0.367-2.147,1.768-3.946,3.744-4.813
			c10.395-4.554,19.755-10.952,27.821-19.018c25.419-25.418,33.533-63.543,20.671-97.129
			C502.922,225.511,502.967,224.103,503.518,222.891z M286.372,384.154c2.505,3.611,5.284,7.043,8.298,10.272
			c-0.645,1.071-1.024,2.321-1.024,3.662c0,3.928,3.185,7.112,7.112,7.112c1.556,0,2.992-0.506,4.163-1.354
			c3.784,2.988,7.748,5.629,11.855,7.933c-8.429,5.582-17.264,9.693-26.018,12.05l-1.877,0.507
			c-8.125,2.194-19.464,5.25-33.468,8.009C262.721,416.016,272.758,400.417,286.372,384.154z M217.024,316.487
			c5.728,6.671,12.343,12.458,19.635,17.136c-25.788,29.599-42.873,58.3-53.759,90.311c-1.683,4.948-1.99,10.213-0.979,15.24
			c-33.418-0.295-67.563-5.102-101.669-14.378c-40.876-11.115-64.035-32.782-65.211-61.009
			c-1.111-26.672,17.568-51.653,35.711-58.25c19.317-7.024,34.734-19.604,49.643-31.769c18.668-15.232,36.3-29.619,60.927-33.675
			c11.925-1.964,24.029-3.018,36.102-3.172C191.256,264.3,197.763,294.053,217.024,316.487z M217.829,196.928
			c-6.689,7.576-11.889,16.033-15.616,24.978c-14.47-0.096-29.02,1.035-43.326,3.39c-20.96,3.452-37.321,13.168-52.199,24.339
			c-21.897-28.762-30.832-65.267-24.56-101.269c0.711-4.08-2.021-7.964-6.101-8.675c-4.082-0.718-7.964,2.021-8.675,6.101
			c-7.007,40.217,3.017,81.005,27.546,113.113c-1.333,1.081-2.66,2.164-3.984,3.244c-4.961,4.049-9.831,8.013-14.76,11.735
			c-46.96-61.097-46.597-147.58,1.728-208.29c1.904-2.392,4.638-3.804,7.698-3.977c3.086-0.17,5.975,0.931,8.154,3.109l8.839,8.839
			C92.86,84.316,84.864,96.35,78.762,109.437c-1.75,3.754-0.126,8.216,3.628,9.966c1.025,0.478,2.103,0.704,3.164,0.704
			c2.825,0,5.529-1.604,6.801-4.333c5.359-11.497,12.372-22.078,20.851-31.576l108.561,108.561
			C220.424,194.107,219.102,195.486,217.829,196.928z"/>
	</g>
</g>
<g>
	<g>
		<path d="M441.685,179.631c-2.045-3.604-6.622-4.866-10.224-2.82c-39.328,22.319-109.48,99.204-136.586,133.499
			c-2.568,3.249-2.017,7.965,1.233,10.533c1.377,1.089,3.017,1.616,4.646,1.616c2.215,0,4.408-0.977,5.888-2.85
			c28.147-35.611,96.404-109.427,132.223-129.755C442.467,187.81,443.729,183.232,441.685,179.631z"/>
	</g>
</g>
<g>
</g>
<g>
</g>
<g>
</g>
<g>
</g>
<g>
</g>
<g>
</g>
<g>
</g>
<g>
</g>
<g>
</g>
<g>
</g>
<g>
</g>
<g>
</g>
<g>
</g>
<g>
</g>
<g>
</g>
</svg>
