<svg id="Capa_1" enable-background="new 0 0 508.693 508.693" height="512" viewBox="0 0 508.693 508.693" width="512" xmlns="http://www.w3.org/2000/svg"><g id="XMLID_882_"><path id="XMLID_914_" d="m346.876 236.22c-24.84-15.434-57.56-23.933-92.133-23.933s-67.293 8.499-92.133 23.933c-27.063 16.814-41.967 39.922-41.967 65.065s14.904 48.251 41.967 65.065c24.84 15.434 57.56 23.933 92.133 23.933s67.293-8.499 92.133-23.933c27.063-16.814 41.967-39.922 41.967-65.065s-14.904-48.251-41.967-65.065zm-92.133 124.063c-56.428 0-104.1-27.018-104.1-58.998s47.672-58.998 104.1-58.998 104.1 27.018 104.1 58.998-47.672 58.998-104.1 58.998z"/><path id="XMLID_935_" d="m217.744 286.285c-7.846 0-15.363 6.899-15 15 .364 8.127 6.591 15 15 15 7.846 0 15.363-6.899 15-15-.364-8.127-6.591-15-15-15z"/><path id="XMLID_936_" d="m291.742 286.285c-7.846 0-15.363 6.899-15 15 .364 8.127 6.591 15 15 15 7.846 0 15.363-6.899 15-15-.364-8.127-6.591-15-15-15z"/><path id="XMLID_937_" d="m332.468 190.348c7.846 0 15.363-6.899 15-15-.364-8.127-6.591-15-15-15-7.846 0-15.363 6.899-15 15 .364 8.127 6.59 15 15 15z"/><path id="XMLID_938_" d="m177.018 190.348c7.846 0 15.363-6.899 15-15-.364-8.127-6.591-15-15-15-7.846 0-15.363 6.899-15 15 .364 8.127 6.591 15 15 15z"/><path id="XMLID_941_" d="m508.299 82.533c-1.657-33.099-7.974-61.089-8.242-62.264l-2.097-9.191-9.192-2.097c-1.175-.269-29.165-6.585-62.264-8.242-47.107-2.359-80.421 5.876-99.019 24.475-5.213 5.212-9.861 10.911-13.913 16.997-.632-.006-1.261-.024-1.894-.024h-113.872c-.896 0-1.787.021-2.68.034-4.053-6.089-8.703-11.79-13.919-17.006-18.598-18.599-51.914-26.833-99.019-24.476-33.1 1.658-61.089 7.974-62.264 8.243l-9.192 2.097-2.097 9.191c-.268 1.174-6.585 29.165-8.241 62.263-2.102 42.001 4.224 73.028 18.811 92.455-5.123 17.01-7.89 35.032-7.89 53.689v67.793c0 57.021 25.61 110.496 72.112 150.575 45.866 39.531 106.708 61.302 171.316 61.302s125.45-21.771 171.316-61.302c46.502-40.079 72.112-93.555 72.112-150.575v-67.793c0-18.934-2.845-37.214-8.115-54.445 14.183-19.461 20.318-50.234 18.243-91.699zm-83.702-51.851c19.604.955 37.621 3.769 48.082 5.678 1.91 10.464 4.723 28.48 5.678 48.082 1.039 21.332-.386 39.317-4.067 53.022-26.103-46.351-71.437-80.489-125.112-91.489 12.181-11.64 38.906-17.074 75.419-15.293zm-394.261 53.759c.956-19.635 3.778-37.68 5.687-48.134 32.51-5.995 100.218-12.928 123.641 9.806-53.76 11.217-99.091 45.655-125.003 92.305-3.874-13.818-5.388-32.148-4.325-53.977zm437.835 212.03c0 100.287-95.744 181.877-213.428 181.877s-213.428-81.59-213.428-181.877v-67.793c0-86.29 70.202-156.491 156.492-156.491h113.873c86.29 0 156.492 70.201 156.492 156.491v67.793z"/></g></svg>